<svg xmlns="http://www.w3.org/2000/svg" viewBox="0 0 64 64" fill="none" role="img" aria-label="SecureVault favicon">
  <defs>
    <linearGradient id="bg" x1="8" y1="6" x2="56" y2="58" gradientUnits="userSpaceOnUse">
      <stop offset="0" stop-color="#0f172a" />
      <stop offset="0.55" stop-color="#0b2535" />
      <stop offset="1" stop-color="#0f766e" />
    </linearGradient>
    <radialGradient id="glow" cx="0.42" cy="0.34" r="0.72">
      <stop offset="0" stop-color="#67e8f9" stop-opacity="0.45" />
      <stop offset="1" stop-color="#67e8f9" stop-opacity="0" />
    </radialGradient>
    <linearGradient id="ring" x1="18" y1="16" x2="46" y2="48" gradientUnits="userSpaceOnUse">
      <stop offset="0" stop-color="#ecfeff" />
      <stop offset="1" stop-color="#bbf7d0" />
    </linearGradient>
    <linearGradient id="core" x1="24" y1="24" x2="40" y2="42" gradientUnits="userSpaceOnUse">
      <stop offset="0" stop-color="#ffffff" />
      <stop offset="1" stop-color="#d1fae5" />
    </linearGradient>
  </defs>

  <rect x="3" y="3" width="58" height="58" rx="16" fill="url(#bg)" />
  <circle cx="32" cy="30" r="20" fill="url(#glow)" />
  <circle cx="32" cy="32" r="16.5" fill="none" stroke="url(#ring)" stroke-width="5.5" />
  <circle cx="32" cy="32" r="11.5" fill="#08121f" stroke="#d1fae5" stroke-opacity="0.22" stroke-width="1.5" />

  <g fill="none" stroke-linecap="round" stroke-linejoin="round">
    <path d="M32 19.5v4.2" stroke="#67e8f9" stroke-width="2.2" />
    <path d="M32 40.3v4.2" stroke="#a7f3d0" stroke-width="2.2" />
    <path d="M19.5 32h4.2" stroke="#67e8f9" stroke-width="2.2" />
    <path d="M40.3 32h4.2" stroke="#a7f3d0" stroke-width="2.2" />
    <path d="M23.2 23.2l3 3" stroke="#67e8f9" stroke-width="2" />
    <path d="M37.8 37.8l3 3" stroke="#a7f3d0" stroke-width="2" />
    <path d="M40.8 23.2l-3 3" stroke="#67e8f9" stroke-width="2" />
    <path d="M26.2 37.8l-3 3" stroke="#a7f3d0" stroke-width="2" />
  </g>

  <circle cx="32" cy="30.2" r="3.2" fill="url(#core)" />
  <rect x="30.95" y="31.5" width="2.1" height="6.2" rx="1.05" fill="url(#core)" />

  <path
    d="M17.5 18.5h3l2.2 2.2h18.6l2.2-2.2h3"
    fill="none"
    stroke="#67e8f9"
    stroke-width="1.6"
    stroke-linecap="round"
    stroke-linejoin="round"
    opacity="0.75"
  />
</svg>
